<?xml version="1.0" encoding="utf-8"?>
<!-- Generator: Adobe Illustrator 15.0.0, SVG Export Plug-In . SVG Version: 6.00 Build 0)  -->
<!DOCTYPE svg PUBLIC "-//W3C//DTD SVG 1.1//EN" "http://www.w3.org/Graphics/SVG/1.1/DTD/svg11.dtd">
<svg version="1.1" id="Layer_1" xmlns="http://www.w3.org/2000/svg" xmlns:xlink="http://www.w3.org/1999/xlink" x="0px" y="0px"
	 width="518px" height="76px" viewBox="0 0 518 76" enable-background="new 0 0 518 76" xml:space="preserve">
<polygon fill="#8CC349" points="26.979,64.579 78.65,64.592 94.22,56.147 97.3,46.909 97.3,34.323 90.114,27.917 78.137,25.352 
	75.058,16.797 67.358,13.546 60.172,15.257 50.762,7.044 38.272,7.044 22.703,15.77 19.966,26.036 18.083,33.877 7.476,40.921 
	7.476,54.438 17.741,61.452 "/>
<g>
	<path fill="#264C9A" d="M135.278,8.72h0.362c1.763,0,3.192,1.429,3.192,3.191v29.176l12.269-13.028
		c0.603-0.641,1.444-1.004,2.323-1.004c2.791,0,4.237,3.33,2.332,5.37l-8.779,9.399l9.735,12.01c1.69,2.086,0.206,5.201-2.48,5.201
		h-0.134c-0.96,0-1.869-0.433-2.475-1.177l-12.791-15.724v13.71c0,1.762-1.429,3.191-3.192,3.191h-0.362
		c-1.762,0-3.191-1.429-3.191-3.191V11.911C132.086,10.149,133.516,8.72,135.278,8.72"/>
	<path fill="#264C9A" d="M168.622,27.055h0.078c1.841,0,3.333,1.492,3.333,3.334V45.08c0,5.556,2.442,8.334,7.326,8.334
		c2.171,0,3.89-0.743,5.156-2.229c1.266-1.486,1.899-3.521,1.899-6.105V30.389c0-1.842,1.493-3.334,3.334-3.334
		c1.841,0,3.334,1.492,3.334,3.334v15.776c0,4.006-1.305,7.301-3.915,9.885c-2.611,2.584-5.945,3.876-10.001,3.876
		c-4.135,0-7.482-1.292-10.04-3.876s-3.838-5.956-3.838-10.117V30.389C165.288,28.547,166.78,27.055,168.622,27.055"/>
	<path fill="#264C9A" d="M201.396,55.701V30.389c0-1.842,1.493-3.334,3.334-3.334c1.841,0,3.333,1.492,3.333,3.334v1.589
		c1.576-2.016,3.083-3.489,4.516-4.419c1.435-0.931,3.082-1.396,4.943-1.396c2.428,0,4.334,0.53,5.718,1.59
		c1.382,1.06,2.552,2.752,3.507,5.078c1.687-2.326,3.314-4.018,4.884-5.078c1.57-1.06,3.393-1.59,5.467-1.59
		c2.544,0,4.735,0.95,6.578,2.849c1.842,1.9,2.763,4.154,2.763,6.765v19.924c0,1.841-1.492,3.334-3.334,3.334h-0.077
		c-1.841,0-3.334-1.493-3.334-3.334v-18.18c0-3.541-1.749-5.311-5.249-5.311c-1.997,0-3.688,0.905-5.075,2.714
		c-1.388,1.808-2.08,4.045-2.08,6.706v14.071c0,1.841-1.493,3.334-3.334,3.334h-0.077c-1.841,0-3.334-1.493-3.334-3.334V38.413
		c0-4.187-1.719-6.28-5.155-6.28c-2.042,0-3.774,0.853-5.195,2.558c-1.421,1.706-2.132,3.812-2.132,6.319v14.691
		c0,1.841-1.492,3.334-3.333,3.334C202.888,59.035,201.396,57.542,201.396,55.701"/>
	<path fill="#264C9A" d="M257.931,27.055h0.078c1.841,0,3.333,1.492,3.333,3.334V45.08c0,5.556,2.442,8.334,7.326,8.334
		c2.171,0,3.89-0.743,5.156-2.229c1.266-1.486,1.899-3.521,1.899-6.105V30.389c0-1.842,1.493-3.334,3.334-3.334
		c1.841,0,3.334,1.492,3.334,3.334v15.776c0,4.006-1.305,7.301-3.915,9.885c-2.611,2.584-5.945,3.876-10.001,3.876
		c-4.135,0-7.482-1.292-10.04-3.876s-3.838-5.956-3.838-10.117V30.389C254.597,28.547,256.09,27.055,257.931,27.055"/>
	<path fill="#264C9A" d="M294.04,8.72L294.04,8.72c1.863,0,3.372,1.51,3.372,3.372v43.57c0,1.863-1.509,3.373-3.372,3.373
		c-1.863,0-3.372-1.51-3.372-3.373v-43.57C290.668,10.229,292.177,8.72,294.04,8.72"/>
	<path fill="#264C9A" d="M310.106,27.055h0.078c1.841,0,3.333,1.492,3.333,3.334V45.08c0,5.556,2.442,8.334,7.326,8.334
		c2.171,0,3.89-0.743,5.156-2.229c1.266-1.486,1.899-3.521,1.899-6.105V30.389c0-1.842,1.493-3.334,3.334-3.334
		c1.841,0,3.334,1.492,3.334,3.334v15.776c0,4.006-1.305,7.301-3.915,9.885c-2.611,2.584-5.945,3.876-10.001,3.876
		c-4.135,0-7.482-1.292-10.04-3.876c-2.558-2.584-3.838-5.956-3.838-10.117V30.389C306.772,28.547,308.266,27.055,310.106,27.055"/>
	<path fill="#264C9A" d="M342.539,27.055h23.418c1.611,0,2.536,1.833,1.579,3.129l-16.963,22.959h16.193
		c1.616,0,2.927,1.31,2.927,2.926c0,1.638-1.328,2.966-2.966,2.966h-23.589c-1.615,0-2.539-1.842-1.573-3.137l17.156-22.99h-16.182
		c-1.616,0-2.927-1.31-2.927-2.926C339.612,28.365,340.923,27.055,342.539,27.055"/>
	<path fill="#264C9A" d="M98.722,31.708c-3.553-5.949-9.617-9.395-17.241-9.859c-1.295-3.76-3.772-6.767-7.146-8.615
		c-3.599-1.972-7.924-2.499-11.946-1.523c-3.548-3.89-8.222-6.398-13.645-7.297c-5.491-0.911-11.462-0.077-16.817,2.348
		c-10.206,4.621-15.92,13.609-15.184,23.448C7.651,33,3.882,40.791,4.25,47.836c0.411,7.872,5.924,16.147,15.663,16.735
		l15.555,0.017v0.003h3.018h0.002c1.789,0,3.239-1.45,3.239-3.239V48.907l11.871,14.592c0.562,0.691,1.406,1.092,2.297,1.092h0.124
		c2.492,0,3.87-2.89,2.301-4.826l-9.034-11.146l8.148-8.722c1.767-1.893,0.425-4.983-2.165-4.983c-0.816,0-1.596,0.336-2.156,0.931
		L41.727,47.936V23.639c0-1.636-1.326-2.962-2.961-2.962h-0.337c-1.635,0-2.961,1.326-2.961,2.962v34.67l-15.263-0.012
		c-6.009-0.412-9.419-5.726-9.684-10.788c-0.253-4.841,2.305-10.484,10.24-11.803h0.001c1.759-0.292,2.922-1.99,2.559-3.736
		c-2.02-9.715,4.459-16.437,11.197-19.487C42.21,9,52.706,9.115,58.814,17.227c0.851,1.132,2.355,1.553,3.67,1.029
		c2.839-1.132,6.223-0.945,8.834,0.485c2.455,1.345,4.065,3.693,4.659,6.791c0.288,1.506,1.621,2.583,3.154,2.549
		c8.241-0.183,12.273,3.623,14.199,6.847c2.83,4.738,2.835,11.263,0.012,16.236c-2.616,4.609-7.174,7.147-12.837,7.147H66.681
		c-1.643,0-3.14,1.182-3.303,2.816c-0.188,1.88,1.283,3.464,3.124,3.464h14.003c7.905,0,14.574-3.764,18.299-10.327
		C102.767,47.281,102.735,38.427,98.722,31.708"/>
</g>
<g>
	<path fill="#8BC249" d="M379.296,58.673c-0.328-0.327-0.491-0.865-0.491-1.614V12.157c0-0.748,0.163-1.286,0.491-1.614
		c0.327-0.327,0.865-0.491,1.613-0.491h12.559c5.098,0,8.992,1.123,11.682,3.368c2.689,2.245,4.035,5.262,4.035,9.05
		c0,2.339-0.772,4.561-2.315,6.666c-1.543,2.104-3.345,3.438-5.402,3.999v0.281c0-0.187,0.912,0.164,2.736,1.052
		c1.824,0.889,3.461,2.187,4.911,3.894c1.449,1.708,2.175,3.941,2.175,6.7c0,9.401-6.104,14.102-18.312,14.102H380.91
		C380.161,59.164,379.623,59,379.296,58.673z M393.118,31.24c2.807,0,5.122-0.794,6.946-2.385c1.824-1.59,2.736-3.531,2.736-5.823
		c0-2.619-0.796-4.548-2.385-5.788c-1.591-1.239-4.117-1.859-7.578-1.859h-7.858V31.24H393.118z M395.223,53.832
		c3.087,0,5.472-0.807,7.156-2.42c1.684-1.614,2.526-3.824,2.526-6.63c0-2.619-0.924-4.642-2.771-6.069
		c-1.848-1.426-4.549-2.14-8.104-2.14h-9.051v17.259H395.223z"/>
	<path fill="#8BC249" d="M422.128,57.445c-1.848-1.426-2.771-3.94-2.771-7.542V7.947c0-1.028,0.935-1.543,2.807-1.543h0.28
		c1.87,0,2.807,0.515,2.807,1.543v41.395c0,1.964,0.339,3.321,1.018,4.069c0.678,0.749,1.602,1.123,2.771,1.123
		c0.888,0,1.554-0.058,1.999-0.176c0.444-0.116,0.783-0.175,1.018-0.175c0.421,0,0.771,0.433,1.053,1.298
		c0.28,0.866,0.421,1.533,0.421,2c0,1.403-1.708,2.105-5.122,2.105C426.068,59.585,423.975,58.873,422.128,57.445z"/>
	<path fill="#8BC249" d="M442.474,54.814c-2.783-3.18-4.175-7.788-4.175-13.821c0-6.08,1.403-10.757,4.21-14.032
		c2.807-3.273,6.828-4.911,12.067-4.911c5.145,0,9.086,1.626,11.822,4.876c2.736,3.252,4.104,7.94,4.104,14.067
		c0,6.081-1.346,10.699-4.034,13.856c-2.69,3.157-6.654,4.736-11.893,4.736C449.29,59.585,445.256,57.996,442.474,54.814z
		 M461.943,51.201c1.637-2.221,2.455-5.671,2.455-10.348c0-4.677-0.818-8.139-2.455-10.384c-1.638-2.245-4.164-3.368-7.577-3.368
		c-3.415,0-5.918,1.111-7.508,3.333c-1.59,2.222-2.385,5.695-2.385,10.419c0,4.677,0.795,8.127,2.385,10.348
		c1.59,2.222,4.093,3.333,7.508,3.333C457.779,54.534,460.306,53.423,461.943,51.201z"/>
	<path fill="#8BC249" d="M481.481,71.933c-2.596-1.403-3.894-3.602-3.894-6.595c0-2.059,0.584-3.836,1.754-5.333
		c1.169-1.496,2.712-2.642,4.631-3.438l0.069-0.141c-1.871-1.496-2.806-3.414-2.806-5.753c0-3.04,1.309-5.473,3.929-7.297
		c-1.965-0.982-3.462-2.338-4.49-4.069c-1.029-1.729-1.544-3.671-1.544-5.823c0-3.32,1.216-6.057,3.648-8.208
		c2.432-2.151,5.823-3.228,10.174-3.228c1.496,0,2.876,0.141,4.139,0.421h12.77c0.514,0,0.877,0.165,1.088,0.491
		c0.21,0.328,0.315,0.866,0.315,1.614v0.842c0,0.749-0.105,1.287-0.315,1.614c-0.211,0.328-0.574,0.491-1.088,0.491
		c-1.918,0-3.555-0.07-4.911-0.21l-0.07,0.14c1.216,1.731,1.824,3.743,1.824,6.034c0,3.368-1.205,6.128-3.613,8.279
		c-2.409,2.152-5.813,3.228-10.208,3.228c-2.199,0-3.859,0.386-4.981,1.158c-1.123,0.771-1.684,2-1.684,3.684
		c0,1.217,0.386,2.14,1.157,2.771s1.742,1.087,2.912,1.368c1.168,0.281,2.806,0.538,4.911,0.772c1.028,0.094,1.8,0.188,2.314,0.28
		c3.368,0.421,5.975,1.205,7.823,2.351c1.848,1.146,2.771,3.168,2.771,6.069c0,3.414-1.357,6.034-4.069,7.858
		c-2.713,1.824-6.689,2.736-11.928,2.736C487.62,74.038,484.077,73.336,481.481,71.933z M500.145,68.004
		c1.566-0.842,2.35-2.152,2.35-3.929c0-1.638-0.771-2.736-2.314-3.297c-1.544-0.562-3.859-1.006-6.946-1.333
		c-2.807-0.281-4.725-0.584-5.753-0.912c-3.087,1.309-4.631,3.203-4.631,5.683c0,3.368,3.344,5.051,10.033,5.051
		C496.156,69.267,498.576,68.846,500.145,68.004z M499.021,38.712c1.52-1.052,2.28-2.771,2.28-5.157
		c0-4.536-2.807-6.806-8.419-6.806c-5.567,0-8.35,2.27-8.35,6.806c0,4.49,2.782,6.735,8.35,6.735
		C495.454,40.291,497.501,39.765,499.021,38.712z"/>
</g>
<rect id="_x3C_Slice_x3E_" x="-14" y="-16" fill="none" width="538" height="106"/>
</svg>
